# xmcd
#
# Track frame offsets: 
#        150
#        14180
#        34135
#        56520
#        70078
#        82300
#        98240
#        119730
#        140328
#        154668
#        169788
#        187115
#        205270
#
# Disc length: 3015 seconds
#
# Revision: 7
# Processed by: cddbd v1.5.2PL0 Copyright (c) Steve Scherf et al.
# Submitted via: ExactAudioCopy v1.0b1
#
DISCID=c10bc50d
DTITLE=Aaron Neville - Warm Your Heart
DYEAR=1991
DGENRE=Blues
TTITLE0=Louisiana 1927
TTITLE1=Everybody Plays The Fool
TTITLE2=It Feels Like Rain
TTITLE3=Somewhere, Somebody
TTITLE4=Don't Go Please Stay
TTITLE5=With You In Mind
TTITLE6=That's The Way She Loves
TTITLE7=Angola Bound
TTITLE8=Close Your Eyes
TTITLE9=La Vie Dansante
TTITLE10=Warm Your Heart
TTITLE11=I Bid You Goodnight
TTITLE12=Ave Maria
EXTD=
EXTT0=
EXTT1=
EXTT2=
EXTT3=
EXTT4=
EXTT5=
EXTT6=
EXTT7=
EXTT8=
EXTT9=
EXTT10=
EXTT11=
EXTT12=
PLAYORDER=
